<svg width="40" height="40" viewBox="0 0 40 40" fill="none" xmlns="http://www.w3.org/2000/svg">
<circle cx="20" cy="20" r="20" fill="#F2A74B"/>
<path d="M16.229 29.5326C15.9814 28.6397 16.0005 27.921 16.3052 27.1153C16.8385 25.7215 17.7718 24.8286 18.8383 24.0011C19.4478 23.5438 19.9811 23.6309 20.4954 24.0882C21.9238 25.3513 23.2761 26.6797 22.9333 29.0752C22.838 29.7939 23.1047 29.7068 23.5808 29.5108C25.295 28.8357 26.2854 27.3113 26.8377 25.5473C27.4853 23.4349 27.2377 21.4532 25.5616 19.8852C24.5141 18.9052 23.3142 18.1648 22.2476 17.2066C21.0858 16.1395 20.743 11 20.743 11C19.6764 12.1106 18.9145 13.8964 19.2764 15.0288C19.3716 15.3119 19.4669 15.6168 19.2574 15.8346C19.0669 16.0306 18.8193 15.9652 18.6479 15.791C18.0004 15.1159 17.4671 15.5297 16.9719 15.987C15.2006 17.5985 13.6959 19.4496 12.5913 21.7363C10.839 25.3731 13.2579 28.8792 16.2291 29.5326L16.229 29.5326Z" fill="white"/>
</svg>
