<svg width="207" height="124" viewBox="0 0 207 124" fill="none" xmlns="http://www.w3.org/2000/svg">
<path d="M206.607 95.1875C205.995 88.6194 205.091 82.0514 204.333 75.5157C204.071 73.2186 203.604 70.9537 203.546 68.6565C203.458 64.871 202.525 61.2149 202.234 57.4618C202.088 55.5528 201.942 53.6115 201.68 51.6702C201.534 50.4408 201.068 49.826 199.843 50.0525C197.802 50.4408 195.732 50.6996 193.662 51.1202L191.709 51.5408L190.805 46.9141H190.834C190.776 46.6876 190.747 46.4288 190.689 46.2023C190.426 44.9404 189.814 44.811 188.881 45.1346C186.782 45.9111 184.683 46.72 182.555 47.4318C181.884 47.6582 181.301 47.9171 181.418 48.7907C181.534 49.729 182.146 50.1819 182.992 50.0849C184.041 49.9554 185.091 49.729 186.17 49.5672C186.986 49.4378 187.861 49.5349 188.006 50.6025C188.181 51.8967 188.648 53.0939 188.823 54.3557C189.289 57.7529 190.251 61.0208 190.864 64.3857C191.388 67.2329 192.059 70.0478 192.584 72.8626C193.4 77.3276 194.45 81.7279 195.295 86.1605C195.674 88.1988 195.587 88.6194 193.75 89.0077C190.135 89.7518 182.963 93.4727 182.759 93.6991C182.438 93.8933 182.088 94.055 181.767 94.2492C181.972 94.6698 182.205 94.7021 182.438 94.6374C182.875 94.508 183.75 94.2492 183.75 94.2492C183.867 94.2169 183.954 94.2169 184.041 94.1844C188.823 92.7285 193.75 92.3079 198.677 91.8225C200.455 91.6284 200.543 91.5314 200.105 89.5901C199.114 85.2222 198.21 80.8219 197.248 76.4217C196.345 72.3126 195.382 68.2035 194.479 64.0945C193.896 61.4414 192.117 53.9027 192.117 53.9027L197.948 53.7733L198.327 56.297L198.56 57.8176C198.56 57.85 198.56 57.8824 198.56 57.9147C198.706 59.403 198.764 60.8914 198.998 62.3473C199.843 67.5241 200.105 72.7979 200.922 78.007C201.563 82.0837 201.796 86.2252 202.438 90.3019C202.992 93.7638 202.729 94.1197 199.639 94.1197C196.869 94.1197 191.505 95.3816 191.505 95.3816C191.33 95.4139 191.155 95.4463 190.98 95.4463C191.039 95.9316 191.243 96.0287 191.505 96.061C191.971 96.1258 192.409 96.1905 192.875 96.2552C192.875 96.2552 200.922 96.9023 204.974 97.1287C206.665 97.2258 206.782 97.0964 206.607 95.1875Z" fill="black"/>
<path d="M193.225 84.7693C192.788 83.5721 192.322 82.4073 191.884 81.2102C190.485 77.3924 189.115 73.5745 187.686 69.7566C186.082 65.4534 184.45 61.1826 182.846 56.8794C181.389 52.8998 180.018 48.9201 178.532 44.9405C177.744 42.8698 177.336 42.7404 175.412 43.6786C173.196 44.7787 171.068 46.0082 168.998 47.4642C166.141 49.4702 163.575 51.8968 161.272 54.6146C161.739 54.3557 162.234 54.0969 162.672 53.8057C166.316 51.4762 169.96 49.2437 174.1 48.1436C175.383 47.7877 176.024 48.3377 176.432 49.3407C177.307 51.4762 178.036 53.7086 178.794 55.9088C180.776 61.6032 182.73 67.2977 184.712 72.9921C185.908 76.4541 187.103 79.8837 188.298 83.3457C188.619 84.2839 188.502 84.7693 187.569 85.1575C185.529 86.0311 183.633 87.1635 181.738 88.4254C179.698 89.7519 177.715 91.1755 175.791 92.6962C175.295 93.0845 174.829 93.4727 174.333 93.8933C174.596 94.2816 174.829 94.2492 175.062 94.1522C175.47 93.958 175.908 93.7639 176.345 93.5698C181.476 91.1755 186.695 89.0078 192.088 87.3577C193.517 86.937 193.75 86.2252 193.225 84.7693Z" fill="black"/>
<path d="M163.838 61.5708C167.045 59.856 169.989 57.5588 173.371 56.2646C169.581 56.6205 166.432 58.4647 163.838 61.5708Z" fill="black"/>
<path d="M177.628 72.5067C177.482 71.9567 176.986 72.0538 176.636 72.1832C173.983 73.1215 171.709 74.6745 169.639 76.9717C169.96 77.0687 170.135 77.1658 170.222 77.1335C172.351 75.4834 174.596 74.0598 177.074 73.1538C177.336 73.0244 177.715 72.895 177.628 72.5067Z" fill="black"/>
<path d="M180.281 79.916C177.453 80.4984 175.179 82.2779 173.021 84.2515C172.846 84.4133 172.817 84.6398 172.963 84.8015C173.109 84.9633 173.313 84.931 173.488 84.8015C175.82 82.9573 178.386 81.5984 180.951 80.0454C180.747 79.9807 180.514 79.8836 180.281 79.916Z" fill="black"/>
<path d="M174.333 64.6446C174.129 64.1269 173.546 64.3858 173.167 64.5799C171.126 65.5182 169.26 66.7477 167.54 68.5595C168.123 68.8507 168.415 68.5595 168.765 68.3654C170.339 67.3948 171.943 66.4241 173.546 65.4535C173.867 65.2917 174.596 65.3564 174.333 64.6446Z" fill="black"/>
<path d="M37.6068 94.8412C34.9154 92.9591 31.7817 92.059 28.6848 91.2816C24.6293 90.2587 20.537 89.4404 16.5921 87.9675C14.1957 87.1083 12.8685 85.4717 12.9054 83.5077C12.9054 81.3802 15.4492 76.9204 16.9608 76.3885C17.2926 76.2658 17.6982 76.2658 18.03 76.3067C21.4956 76.8386 24.9243 76.4294 28.2424 75.4884C31.4867 74.5882 34.4362 72.9516 36.3164 69.5966C36.6114 69.1056 37.2013 68.6964 36.8326 68.0009C36.4639 67.3872 35.8371 67.5508 35.321 67.5918C32.6665 67.6326 30.012 67.7963 27.5788 66.3234C24.7031 64.6049 21.7536 64.2776 18.5093 65.1368C14.2326 66.2825 10.214 68.4919 5.71613 68.5737C4.75756 68.5737 4.7207 69.4329 5.31058 70.1694C5.6424 70.5785 6.04793 70.865 6.41661 71.1923C8.92362 73.2789 8.92363 73.2789 7.41206 76.3067C7.33831 76.4294 7.22771 76.5112 7.19083 76.634C5.12624 81.8302 4.86816 86.4536 10.0297 90.6269C12.6473 92.7136 15.6336 93.9411 18.6936 94.8003C23.2652 96.0687 27.9106 96.9688 32.4822 98.2781C37.0907 99.5873 38.7866 102.124 35.8371 107.198C30.86 115.79 17.5507 121.804 7.85446 117.876C5.19998 116.813 4.7207 115.912 5.12624 112.803C5.53179 109.816 7.1171 107.484 8.48121 104.988C9.95593 102.206 12.168 99.9965 13.5321 96.6415C12.9422 96.887 12.7579 96.8869 12.6104 97.0097C8.07567 101.347 4.16768 106.216 2.17682 112.639C1.18139 115.79 2.17681 118.899 4.57321 120.986C6.93276 123.073 9.77159 123.645 12.6473 123.891C19.3941 124.464 25.846 122.745 31.8923 119.554C36.0215 117.385 39.8189 114.521 41.4779 109.448C43.3951 103.474 43.2476 98.7691 37.6068 94.8412Z" fill="black"/>
<path d="M13.3108 34.8188C12.8315 33.1412 12.8684 31.791 13.4583 30.2772C14.4906 27.6586 16.2971 25.9811 18.3617 24.4263C19.5415 23.5671 20.5738 23.7308 21.5692 24.59C24.3343 26.9631 26.9519 29.4589 26.2883 33.9595C26.1039 35.3097 26.6201 35.1461 27.5418 34.7778C30.8599 33.5095 32.777 30.6454 33.8462 27.3313C35.0997 23.3625 34.6204 19.6392 31.376 16.6934C29.3483 14.8522 27.0257 13.4611 24.9611 11.6608C22.7121 9.65596 22.0485 0 22.0485 0C19.9839 2.08667 18.5092 5.44171 19.2097 7.5693C19.394 8.10119 19.5783 8.674 19.1729 9.08315C18.8042 9.45139 18.3249 9.32864 17.9931 9.00131C16.7396 7.73294 15.7073 8.51033 14.7487 9.36954C11.32 12.3973 8.40746 15.875 6.26912 20.1711C2.87729 27.004 7.55942 33.5913 13.3108 34.8188Z" fill="black"/>
<path d="M32.8876 43.1654C32.0765 43.4518 32.2977 44.2292 32.2609 44.8838C32.2241 45.4157 32.1871 45.9886 32.1503 46.5204C31.8553 49.4254 32.1871 52.3713 30.9705 55.1535C30.27 56.7492 29.2377 57.6493 27.6524 57.363C26.3989 57.1175 25.1454 56.6674 23.9287 56.2582C21.0531 55.2763 18.1405 54.3761 15.0805 54.7035C14.6012 54.7443 14.0113 54.7035 13.8269 55.3172C13.6057 56.0128 14.2694 56.1764 14.6381 56.4628C19.1359 60.0224 23.9656 62.8865 29.3115 64.5231C35.4315 66.4052 40.0769 62.9274 40.0769 54.9899C39.7819 51.3484 37.9385 47.0933 34.3255 43.8201C33.9199 43.37 33.5144 42.9608 32.8876 43.1654Z" fill="black"/>
<path d="M3.35658 65.3823C4.46262 66.1597 5.71613 66.2006 6.8959 66.4052C10.8776 67.1417 14.3801 65.7915 17.4401 62.9274C18.4355 61.9864 18.2881 61.4544 16.9977 61.0453C15.8548 60.6771 14.675 60.1861 13.6427 59.4496C9.43978 56.4628 8.33374 51.7985 8.00192 46.6432C8.00192 46.3159 8.00192 45.9476 7.96512 45.6203C7.78078 44.802 8.48128 43.6155 7.59644 43.1654C6.60102 42.6744 6.048 43.9428 5.31064 44.5156C5.16315 44.6384 5.08944 44.8429 4.94196 44.9657C2.36122 48.0343 1.03398 51.7985 0.222872 55.8491C-0.551338 59.8588 0.738975 63.582 3.35658 65.3823Z" fill="black"/>
<path d="M19.8733 49.8755L20.6106 48.5662C22.0116 46.1113 23.7813 43.9428 24.961 41.3242C25.8827 39.2785 25.7353 37.6828 24.1499 36.2508C22.6384 34.9006 20.795 34.205 18.841 34.4505C16.0021 34.8187 14.4168 36.619 14.4537 39.4422C14.4905 40.2195 14.7118 41.1606 15.0805 42.1425C16.039 44.6384 18.1405 45.8658 19.2834 48.1571C19.2834 48.1571 19.8364 49.5482 19.8733 49.8755Z" fill="black"/>
<path d="M49.0293 91.0978L48.9873 90.2145L48.9452 90.1303C48.2722 91.1679 47.4168 91.9952 46.3792 92.6122C45.3697 93.2291 44.3742 93.5376 43.3926 93.5376C40.4481 93.5376 38.7655 91.2521 38.3449 86.681C38.2888 85.9519 38.2607 84.073 38.2607 81.0443C38.2607 78.0156 38.3869 76.2209 38.6393 75.66C39.3684 75.0711 40.5462 74.7766 42.1728 74.7766C42.8178 74.7766 43.2104 74.8467 43.3506 74.987C43.3506 75.015 43.3366 75.3936 43.3085 76.1227C43.1683 78.254 43.0982 79.8945 43.0982 81.0443C43.0982 82.1941 43.1122 83.0494 43.1403 83.6103C43.1683 84.1431 43.1823 84.4936 43.1823 84.6619C43.2104 84.8021 43.2524 85.0685 43.3085 85.4611C43.3926 85.8537 43.5048 86.1903 43.645 86.4707C44.0657 87.2839 44.7107 87.6906 45.58 87.6906C46.4774 87.6906 47.2626 87.2559 47.9356 86.3866C48.6367 85.4892 48.9733 84.8582 48.9452 84.4936V83.0634C48.9452 77.9315 49.0293 75.1692 49.1976 74.7766C49.3378 74.5242 49.7725 74.2578 50.5016 73.9774C51.2588 73.697 52.0019 73.5568 52.731 73.5568C53.4602 73.5568 53.8808 73.6128 53.993 73.725L53.9089 75.7021C53.7406 79.7123 53.6565 82.811 53.6565 84.9984C53.6565 87.1858 53.7126 88.5739 53.8247 89.1628C54.021 90.565 54.3996 91.6867 54.9605 92.528C54.9605 92.8085 54.3856 93.2572 53.2358 93.8741C52.0861 94.4911 51.1045 94.7995 50.2913 94.7995C50.0669 94.7995 49.8145 94.3789 49.5341 93.5376C49.2537 92.6963 49.0854 91.883 49.0293 91.0978ZM57.9905 87.0175L57.9063 77.4688C57.9063 75.8142 57.9624 74.9309 58.0746 74.8187C58.3831 74.5102 58.9159 74.2438 59.6731 74.0195C60.4302 73.7671 61.1313 73.6409 61.7763 73.6409C62.4494 73.6409 62.7859 73.711 62.7859 73.8512C62.7017 74.6084 62.6597 75.4777 62.6597 76.4592C62.6597 77.4127 62.6877 77.8894 62.7438 77.8894C62.7999 77.8894 62.856 77.8614 62.9121 77.8053C62.9682 77.7212 63.0523 77.609 63.1645 77.4688C63.3047 77.3005 63.5711 77.0201 63.9637 76.6275C64.3843 76.2349 64.833 75.8984 65.3098 75.6179C66.5156 74.8327 67.8056 74.4401 69.1797 74.4401C69.4041 74.8047 69.5163 75.3655 69.5163 76.1227C69.5163 77.7212 69.32 78.8569 68.9274 79.53L68.7591 79.8665L68.2122 79.7824C66.1931 79.7824 64.6087 80.6096 63.4589 82.2642C63.0102 82.9372 62.7859 83.442 62.7859 83.7785V87.4802C62.7859 90.8454 62.7438 92.5701 62.6597 92.6542C61.8745 93.4114 60.3321 93.79 58.0325 93.79C57.8082 93.79 57.696 93.7479 57.696 93.6638C57.8923 92.5701 57.9905 90.3547 57.9905 87.0175ZM81.9747 91.0978L81.9326 90.2145L81.8906 90.1303C81.2175 91.1679 80.3622 91.9952 79.3246 92.6122C78.3151 93.2291 77.3195 93.5376 76.338 93.5376C73.3935 93.5376 71.7109 91.2521 71.2902 86.681C71.2341 85.9519 71.2061 84.073 71.2061 81.0443C71.2061 78.0156 71.3323 76.2209 71.5847 75.66C72.3138 75.0711 73.4916 74.7766 75.1181 74.7766C75.7631 74.7766 76.1557 74.8467 76.2959 74.987C76.2959 75.015 76.2819 75.3936 76.2539 76.1227C76.1137 78.254 76.0436 79.8945 76.0436 81.0443C76.0436 82.1941 76.0576 83.0494 76.0856 83.6103C76.1137 84.1431 76.1277 84.4936 76.1277 84.6619C76.1557 84.8021 76.1978 85.0685 76.2539 85.4611C76.338 85.8537 76.4502 86.1903 76.5904 86.4707C77.011 87.2839 77.656 87.6906 78.5254 87.6906C79.4228 87.6906 80.208 87.2559 80.881 86.3866C81.5821 85.4892 81.9186 84.8582 81.8906 84.4936V83.0634C81.8906 77.9315 81.9747 75.1692 82.143 74.7766C82.2832 74.5242 82.7178 74.2578 83.447 73.9774C84.2041 73.697 84.9473 73.5568 85.6764 73.5568C86.4055 73.5568 86.8262 73.6128 86.9384 73.725L86.8542 75.7021C86.686 79.7123 86.6018 82.811 86.6018 84.9984C86.6018 87.1858 86.6579 88.5739 86.7701 89.1628C86.9664 90.565 87.345 91.6867 87.9059 92.528C87.9059 92.8085 87.331 93.2572 86.1812 93.8741C85.0314 94.4911 84.0499 94.7995 83.2366 94.7995C83.0123 94.7995 82.7599 94.3789 82.4795 93.5376C82.199 92.6963 82.0308 91.883 81.9747 91.0978ZM90.7354 86.6389L90.6512 71.117C90.6512 67.6116 90.7214 65.7888 90.8616 65.6486C91.1981 65.312 91.7449 64.9895 92.5021 64.6811C93.2873 64.3726 94.0305 64.2183 94.7315 64.2183C95.4326 64.2183 95.7832 64.2744 95.7832 64.3866C95.7271 64.667 95.6429 66.2655 95.5308 69.182C95.4466 72.0705 95.4186 73.8652 95.4466 74.5663H96.1197C99.2325 74.5663 101.77 75.2814 103.733 76.7116C104.519 77.3005 105.206 78.1839 105.795 79.3617C106.384 80.5115 106.678 81.8576 106.678 83.3999C106.678 86.0641 105.598 88.2935 103.439 90.0883C101.28 91.855 98.6296 92.9907 95.4887 93.4955C95.4887 94.1405 95.4747 94.4911 95.4466 94.5471C95.0821 94.9117 94.4371 95.1921 93.5117 95.3884C92.6143 95.5847 91.8711 95.6829 91.2822 95.6829C90.7214 95.6829 90.4409 95.6408 90.4409 95.5567C90.6372 94.7715 90.7354 91.7989 90.7354 86.6389ZM95.5728 88.8684C96.302 88.8684 97.0591 88.7562 97.8443 88.5319C98.6296 88.2795 99.2605 87.971 99.7373 87.6064C100.242 87.2419 100.691 86.667 101.083 85.8818C101.504 85.0966 101.714 84.073 101.714 82.811C101.714 81.5491 101.266 80.5816 100.368 79.9086C99.4989 79.2355 98.4893 78.899 97.3396 78.899L95.4046 79.0252V82.0539C95.4046 85.8397 95.4607 88.1112 95.5728 88.8684ZM127.03 83.9468C127.03 86.6109 126.217 88.9245 124.59 90.8875C122.992 92.8225 120.804 93.79 118.028 93.79C115.28 93.79 113.12 92.9347 111.55 91.224C109.98 89.5134 109.194 87.298 109.194 84.5778C109.194 81.8295 110.162 79.4038 112.097 77.3005C114.06 75.1692 116.696 74.1036 120.005 74.1036C121.351 74.1597 122.08 74.2438 122.192 74.356C122.305 74.4682 122.361 74.7346 122.361 75.1552C122.361 75.5759 122.319 76.0386 122.234 76.5434C122.655 76.5434 123.188 76.7958 123.833 77.3005C124.506 77.7773 125.053 78.268 125.473 78.7728C125.894 79.2776 126.259 79.9927 126.567 80.9181C126.876 81.8155 127.03 82.8251 127.03 83.9468ZM120.888 81.0022C120.243 80.5816 119.612 80.3713 118.995 80.3713H118.659C118.603 80.2591 118.575 80.0207 118.575 79.6562C118.575 79.2916 118.617 78.9411 118.701 78.6045C117.551 78.6045 116.472 79.1233 115.462 80.1609C114.48 81.1985 113.99 82.6428 113.99 84.4936C113.99 86.681 114.691 88.1953 116.093 89.0366C116.626 89.3732 117.355 89.5414 118.28 89.5414C119.234 89.5414 120.117 89.1068 120.93 88.2374C121.772 87.3681 122.192 86.0781 122.192 84.3674C122.192 82.6568 121.758 81.5351 120.888 81.0022ZM147.405 83.9468C147.405 86.6109 146.592 88.9245 144.965 90.8875C143.367 92.8225 141.179 93.79 138.403 93.79C135.655 93.79 133.496 92.9347 131.925 91.224C130.355 89.5134 129.569 87.298 129.569 84.5778C129.569 81.8295 130.537 79.4038 132.472 77.3005C134.435 75.1692 137.071 74.1036 140.38 74.1036C141.726 74.1597 142.455 74.2438 142.568 74.356C142.68 74.4682 142.736 74.7346 142.736 75.1552C142.736 75.5759 142.694 76.0386 142.61 76.5434C143.03 76.5434 143.563 76.7958 144.208 77.3005C144.881 77.7773 145.428 78.268 145.849 78.7728C146.269 79.2776 146.634 79.9927 146.942 80.9181C147.251 81.8155 147.405 82.8251 147.405 83.9468ZM141.264 81.0022C140.619 80.5816 139.988 80.3713 139.371 80.3713H139.034C138.978 80.2591 138.95 80.0207 138.95 79.6562C138.95 79.2916 138.992 78.9411 139.076 78.6045C137.926 78.6045 136.847 79.1233 135.837 80.1609C134.856 81.1985 134.365 82.6428 134.365 84.4936C134.365 86.681 135.066 88.1953 136.468 89.0366C137.001 89.3732 137.73 89.5414 138.656 89.5414C139.609 89.5414 140.492 89.1068 141.306 88.2374C142.147 87.3681 142.568 86.0781 142.568 84.3674C142.568 82.6568 142.133 81.5351 141.264 81.0022ZM151.123 84.5357L150.996 69.9392C150.996 67.219 151.066 65.7888 151.207 65.6486C151.543 65.312 152.09 64.9895 152.847 64.6811C153.604 64.3726 154.333 64.2183 155.035 64.2183C155.736 64.2183 156.086 64.2744 156.086 64.3866C156.058 64.5268 155.988 66.4899 155.876 70.2757C155.792 74.0615 155.75 76.5153 155.75 77.6371C155.75 78.7307 155.764 79.3617 155.792 79.53C155.82 79.6702 155.876 79.7403 155.96 79.7403L156.044 79.6982C156.941 78.7448 158.274 77.5529 160.04 76.1227C161.807 74.6925 162.943 73.9774 163.448 73.9774C165.102 75.015 165.929 75.8563 165.929 76.5013C165.088 77.0341 164.093 77.7632 162.943 78.6887C161.793 79.6141 161.162 80.203 161.05 80.4554C161.05 80.6797 161.288 81.493 161.765 82.8952C162.27 84.2693 162.999 85.8958 163.952 87.7747C164.906 89.6536 165.859 91.0698 166.813 92.0233C166.813 92.3598 166.196 92.7804 164.962 93.2852C163.728 93.79 162.662 94.0424 161.765 94.0424C161.428 94.0424 160.769 92.7243 159.788 90.0883C158.834 87.4522 158.175 85.405 157.811 83.9468L157.727 83.8206C157.615 83.8206 157.264 84.2272 156.675 85.0405C156.086 85.8537 155.792 86.4006 155.792 86.681L155.918 90.9716C155.918 91.9812 155.862 92.5421 155.75 92.6542C155.385 93.0188 154.754 93.2992 153.857 93.4955C152.959 93.6918 152.216 93.79 151.627 93.79C151.066 93.79 150.786 93.7479 150.786 93.6638C151.01 92.4299 151.123 89.3872 151.123 84.5357Z" fill="black"/>
</svg>
